<?xml version="1.0" encoding="UTF-8"?>
<svg id="Calque_1" xmlns="http://www.w3.org/2000/svg" version="1.1" viewBox="0 0 841.9 595.3">
  <!-- Generator: Adobe Illustrator 29.5.0, SVG Export Plug-In . SVG Version: 2.1.0 Build 137)  -->
  <defs>
    <style>
      .st0, .st1 {
        fill: #fff;
      }

      .st1 {
        font-family: Montserrat-Regular, Montserrat;
        font-size: 58px;
      }
    </style>
  </defs>
  <g>
    <path class="st0" d="M158.8,59.6h167v391h-88.2V134.5h-78.8V59.6Z"/>
    <path class="st0" d="M572.1,361.6c-9.1,11.7-21.1,19.2-35.7,22.7-6.1,1.4-12.8,2.2-19.9,2.2s-18-1.2-25.7-3.6c-15.2-4.7-27.1-14-35.7-28-13-21-19.5-54.3-19.5-99.7s1.7-44,5.2-61v-38.5h14.1c0-.1.2-.3.2-.4,13-20.8,33.5-31.3,61.4-31.3s42.8,8.3,55.8,24.8c11-4,23.5-6.1,37.5-6.1,27,0,48.5,7.6,64.5,22.7-7.3-22.4-17.8-41.6-31.5-57.6-29.4-34.3-71.5-51.4-126.2-51.4s-97.5,17.1-127.1,51.4c-29.6,34.3-44.4,83.4-44.4,147.5s14.8,112.7,44.4,147.2c29.6,34.4,72,51.7,127.1,51.7s96.8-17.2,126.2-51.7c13.6-15.9,24.1-35,31.4-57.1-16,15-37.4,22.5-64.3,22.5s-26.6-2-37.6-6.1Z"/>
    <path class="st0" d="M448.3,165.6h72v179.3h-34.3v-149.1h-37.7v-30.2Z"/>
    <path class="st0" d="M683.1,289.5c-3.3,13.2-8.7,24.2-16.2,33.1-13.3,15.7-32.4,23.6-57.1,23.6s-43.8-7.9-57.1-23.6c-7.5-8.9-12.9-19.9-16.2-33.1h35.6c1.6,5.5,3.7,10.3,6.3,14.2,6.8,10.4,17.3,15.6,31.5,15.6s24.7-5.2,31.5-15.6c2.6-3.9,4.7-8.6,6.3-14.2h35.6Z"/>
    <path class="st0" d="M683.1,220.8h-35.6c-1.6-5.5-3.7-10.2-6.2-14-6.8-10.3-17.3-15.5-31.5-15.5s-24.7,5.2-31.5,15.5c-2.6,3.9-4.6,8.5-6.2,14h-35.6c3.3-13.2,8.7-24.3,16.2-33.1,13.3-15.7,32.4-23.6,57.1-23.6s43.8,7.9,57.1,23.6c7.5,8.9,12.9,19.9,16.2,33.1Z"/>
    <path class="st0" d="M575.6,243.3c-2.1-.6-4-1-5.7-1s-3,.3-3.9.9c-1,.6-1.5,1.5-1.5,2.7s.6,2.2,1.8,2.9c1.2.7,3.2,1.4,5.8,2.1,2.8.9,5.1,1.7,6.9,2.5,1.8.8,3.4,2.1,4.7,3.7,1.3,1.6,2,3.8,2,6.4,0,3.9-1.5,6.9-4.5,9-3,2.1-6.8,3.2-11.3,3.2s-6.1-.5-9.1-1.5c-3-1-5.5-2.4-7.5-4.2l3.4-6.8c1.8,1.6,3.9,2.8,6.5,3.6,2.5.9,4.9,1.3,7.1,1.3s3.2-.3,4.3-.9c1.1-.6,1.6-1.6,1.6-2.8s-.6-2.5-1.9-3.2c-1.3-.7-3.3-1.5-6.1-2.3-2.7-.8-4.9-1.6-6.6-2.4-1.7-.8-3.2-2-4.4-3.5-1.3-1.6-1.9-3.6-1.9-6.2,0-3.9,1.4-7,4.3-9,2.9-2.1,6.5-3.1,10.8-3.1s5.3.4,7.8,1.1c2.6.8,4.9,1.8,6.9,3.2l-3.5,7.1c-2-1.1-4-2-6-2.7Z"/>
    <path class="st0" d="M631.1,235.1v40.1h-9.8v-7.4c-2.7,5.2-7.4,7.8-14,7.8s-8.1-1.4-10.7-4.1c-2.6-2.7-3.9-6.5-3.9-11.3v-25.1h9.8v22.3c0,2.8.8,5,2.3,6.6,1.5,1.6,3.6,2.4,6.3,2.4,3.1,0,5.6-1.2,7.4-3.3,1.8-2.1,2.7-4.9,2.7-8.2v-19.8h9.8Z"/>
    <path class="st0" d="M658.5,236.9c2.3-1.4,5-2.1,8.1-2.1v9.5c-4.2-.2-7.5.7-9.9,2.9-2.5,2.2-3.7,5.1-3.7,8.8v19.4h-9.8v-40.1h9.8v7.7c1.4-2.6,3.2-4.6,5.5-6Z"/>
  </g>
  <text class="st1" transform="translate(187.6 524.8)"><tspan x="0" y="0">Soutien Scolaire</tspan></text>
</svg>